<svg width="25" height="18" viewBox="0 0 25 18" fill="none" xmlns="http://www.w3.org/2000/svg">
<path d="M25 8.59375C25 8.59375 20.3125 0 12.5 0C4.6875 0 0 8.59375 0 8.59375C0 8.59375 4.6875 17.1875 12.5 17.1875C20.3125 17.1875 25 8.59375 25 8.59375ZM1.83281 8.59375C2.58716 7.44467 3.4562 6.37512 4.42656 5.40156C6.4375 3.3875 9.1875 1.5625 12.5 1.5625C15.8125 1.5625 18.5609 3.3875 20.575 5.40156C21.5454 6.37512 22.4144 7.44467 23.1688 8.59375C23.0792 8.72917 22.9776 8.87917 22.8641 9.04375C22.3406 9.79375 21.5672 10.7938 20.575 11.7859C18.5609 13.8 15.8109 15.625 12.5 15.625C9.18906 15.625 6.43906 13.8 4.425 11.7859C3.45463 10.8124 2.58716 9.74283 1.83281 8.59375Z" fill="#6D6D6D"/>
<path d="M12.5 4.6875C11.464 4.6875 10.4704 5.09905 9.73786 5.83161C9.0053 6.56418 8.59375 7.55775 8.59375 8.59375C8.59375 9.62975 9.0053 10.6233 9.73786 11.3559C10.4704 12.0884 11.464 12.5 12.5 12.5C13.536 12.5 14.5296 12.0884 15.2621 11.3559C15.9947 10.6233 16.4062 9.62975 16.4062 8.59375C16.4062 7.55775 15.9947 6.56418 15.2621 5.83161C14.5296 5.09905 13.536 4.6875 12.5 4.6875ZM7.03125 8.59375C7.03125 7.14335 7.60742 5.75235 8.63301 4.72676C9.6586 3.70117 11.0496 3.125 12.5 3.125C13.9504 3.125 15.3414 3.70117 16.367 4.72676C17.3926 5.75235 17.9687 7.14335 17.9688 8.59375C17.9688 10.0442 17.3926 11.4352 16.367 12.4607C15.3414 13.4863 13.9504 14.0625 12.5 14.0625C11.0496 14.0625 9.6586 13.4863 8.63301 12.4607C7.60742 11.4352 7.03125 10.0442 7.03125 8.59375Z" fill="#6D6D6D"/>
</svg>
