<svg width="25" height="20" viewBox="0 0 25 20" fill="none" xmlns="http://www.w3.org/2000/svg">
<path d="M20.8734 14.9875C23.5313 12.6156 25 9.9281 25 9.9281C25 9.9281 20.3125 1.33435 12.5 1.33435C10.9992 1.33827 9.51533 1.65101 8.14062 2.2531L9.34375 3.45779C10.3558 3.09099 11.4235 2.90123 12.5 2.89685C15.8125 2.89685 18.5609 4.72185 20.575 6.73591C21.5454 7.70947 22.4144 8.77902 23.1688 9.9281C23.0792 10.0635 22.9776 10.2135 22.8641 10.3781C22.3406 11.1281 21.5672 12.1281 20.575 13.1203C20.3177 13.3786 20.0484 13.6317 19.7672 13.8797L20.8734 14.9875Z" fill="#6D6D6D"/>
<path d="M17.6517 11.7657C18.0004 10.7904 18.065 9.73621 17.838 8.7257C17.6109 7.71519 17.1016 6.78992 16.3692 6.05757C15.6369 5.32522 14.7116 4.81589 13.7011 4.58884C12.6906 4.36179 11.6364 4.42636 10.6611 4.77504L11.9471 6.06098C12.5475 5.97503 13.1598 6.03011 13.7353 6.22186C14.3108 6.41361 14.8337 6.73675 15.2627 7.16568C15.6916 7.59462 16.0147 8.11755 16.2065 8.69306C16.3982 9.26856 16.4533 9.88081 16.3674 10.4813L17.6517 11.7657ZM13.0533 13.7954L14.3377 15.0797C13.3624 15.4284 12.3082 15.493 11.2977 15.2659C10.2872 15.0389 9.36195 14.5296 8.62959 13.7972C7.89724 13.0648 7.38791 12.1396 7.16086 11.1291C6.93381 10.1186 6.99838 9.06435 7.34706 8.0891L8.633 9.37504C8.54705 9.97553 8.60213 10.5878 8.79388 11.1633C8.98563 11.7388 9.30877 12.2617 9.73771 12.6906C10.1666 13.1196 10.6896 13.4427 11.2651 13.6345C11.8406 13.8262 12.4528 13.8813 13.0533 13.7954Z" fill="#6D6D6D"/>
<path d="M5.23437 5.975C4.95312 6.225 4.68333 6.47865 4.425 6.73594C3.45463 7.7095 2.5856 8.77904 1.83125 9.92813L2.13594 10.3781C2.65937 11.1281 3.43281 12.1281 4.425 13.1203C6.43906 15.1344 9.18906 16.9594 12.5 16.9594C13.6188 16.9594 14.6719 16.7516 15.6563 16.3969L16.8594 17.6031C15.4847 18.2052 14.0008 18.518 12.5 18.5219C4.6875 18.5219 0 9.92813 0 9.92813C0 9.92813 1.46719 7.23906 4.12656 4.86875L5.23281 5.97656L5.23437 5.975ZM21.3219 19.8563L2.57188 1.10625L3.67813 0L22.4281 18.75L21.3219 19.8563Z" fill="#6D6D6D"/>
</svg>
